<svg width="24" height="24" viewBox="0 0 24 24" fill="none" xmlns="http://www.w3.org/2000/svg">
<path d="M22.5759 12.2447C22.5759 11.4961 22.5157 10.7475 22.3952 10.0142H12.1706V14.246H18.0283C17.7874 15.6057 17.0043 16.8279 15.8599 17.5917V20.3416H19.3534C21.4014 18.432 22.5759 15.6057 22.5759 12.2447Z" fill="#4285F4"/>
<path d="M12.1711 23C15.0924 23 17.5615 22.0221 19.3534 20.3416L15.8599 17.5917C14.8811 18.2639 13.6317 18.646 12.1711 18.646C9.34009 18.646 6.94581 16.7058 6.08749 14.1086H2.48855V16.9502C4.32566 20.6626 8.07519 23 12.1711 23Z" fill="#34A853"/>
<path d="M6.08749 14.1086C5.63567 12.7489 5.63609 11.267 6.08791 9.89203V7.06574H2.48839C0.937137 10.167 0.937137 13.8336 2.48839 16.9349L6.08749 14.1086Z" fill="#FBBC04"/>
<path d="M12.1711 5.35469C13.7221 5.32413 15.2128 5.91995 16.3272 7.00463L19.4292 3.85751C17.4565 1.99369 14.8665 0.97011 12.1711 1.00066C8.07519 1.00066 4.32551 3.35336 2.48839 7.06574L6.08749 9.90732C6.94581 7.2949 9.34009 5.35469 12.1711 5.35469Z" fill="#EA4335"/>
</svg>
